<svg version="1.1" id="Layer_1" xmlns="http://www.w3.org/2000/svg" xmlns:xlink="http://www.w3.org/1999/xlink" x="0px" y="0px"
	 width="100%" viewBox="0 0 500 500" enable-background="new 0 0 500 500" xml:space="preserve">
<path fill="#000000" opacity="1.000000" stroke="none" 
	d="
M235.000000,501.000000 
	C156.666687,501.000000 78.833374,501.000000 1.000042,501.000000 
	C1.000028,334.333405 1.000028,167.666779 1.000014,1.000131 
	C167.666565,1.000087 334.333130,1.000087 500.999756,1.000044 
	C500.999847,167.666519 500.999847,334.333038 500.999939,500.999786 
	C412.500000,501.000000 324.000000,501.000000 235.000000,501.000000 
M238.987366,176.994812 
	C238.987366,176.994812 238.930557,177.044357 239.187164,177.674469 
	C240.447876,179.499069 241.708603,181.323654 243.069504,183.574066 
	C243.069504,183.574066 243.217255,183.985809 243.084518,184.787186 
	C243.483307,188.194138 243.882080,191.601074 244.045853,195.619339 
	C244.095413,196.049530 244.144989,196.479721 244.348495,197.598434 
	C245.408127,198.014236 246.954742,198.122421 247.444748,198.898087 
	C249.810196,202.642532 251.369614,202.947052 255.337173,199.625458 
	C254.486145,198.939468 253.667099,198.279266 253.691467,197.697495 
	C255.060532,197.540985 256.429596,197.384476 258.187988,197.121475 
	C258.086548,196.514343 257.985107,195.907196 257.059937,195.040176 
	C254.711792,194.646912 252.363647,194.253647 250.868286,194.009995 
	C253.201050,193.659637 255.533813,193.309280 257.990692,192.310120 
	C257.944916,191.874069 257.899139,191.438019 257.997833,190.507874 
	C257.988068,190.336563 257.978302,190.165268 258.010834,189.982529 
	C258.010834,189.982529 257.981232,189.950180 258.486237,189.386108 
	C259.992462,185.657715 261.290070,181.827194 263.053436,178.224670 
	C265.748596,172.718567 268.153717,167.368362 263.001923,161.996902 
	C263.001923,161.996902 263.069122,161.959808 262.980621,161.320923 
	C262.322754,160.536728 261.664886,159.752533 260.998810,159.002441 
	C260.998810,159.002441 261.032440,158.992310 260.755463,158.373077 
	C254.226746,153.620483 247.604919,154.851517 240.925262,157.304977 
	C239.313782,155.275879 237.715134,153.235611 236.017105,151.281769 
	C235.974457,151.232681 234.834961,152.136856 234.207016,152.596436 
	C235.833511,154.356125 237.406830,156.171051 239.130234,157.830063 
	C239.485397,158.171967 240.400208,157.932480 241.000977,158.628922 
	C240.683472,159.431671 240.365967,160.234421 239.994965,161.038467 
	C239.994965,161.038467 240.044540,161.065521 239.832581,161.251236 
	C239.723633,161.418732 239.700867,161.597168 239.095016,162.270828 
	C238.737289,163.276596 238.379562,164.282364 237.687332,165.630295 
	C237.585770,166.068512 237.484207,166.506714 237.191711,167.612137 
	C237.216690,168.072861 237.241684,168.533569 237.074097,169.502914 
	C237.142731,169.670700 237.211380,169.838486 237.200455,170.653442 
	C237.261505,171.080536 237.322571,171.507645 237.169296,172.648834 
	C237.765793,174.120636 238.362289,175.592438 238.987366,176.994812 
M208.040497,161.899139 
	C208.040497,161.899139 208.195328,161.818130 207.602173,161.182159 
	C202.018066,161.383865 196.433960,161.585587 190.214905,162.124390 
	C189.175125,163.494766 188.135345,164.865143 186.532043,166.345215 
	C186.455750,166.900238 186.379456,167.455246 185.502274,168.138992 
	C184.985168,168.264023 184.468063,168.389053 183.642609,168.428925 
	C183.393356,168.550385 183.340546,168.729782 183.162613,169.578751 
	C183.210114,170.032852 183.257599,170.486954 183.131607,171.876160 
	C183.131607,181.624786 183.131607,191.373398 183.131607,201.362320 
	C194.036423,202.185623 204.496490,203.275192 215.869629,201.990646 
	C217.943619,201.990646 220.017609,201.990646 222.505585,201.990646 
	C222.505585,190.977051 222.548035,180.737946 222.396912,170.501694 
	C222.388138,169.907288 220.809570,169.336075 219.450424,168.514145 
	C219.041885,167.612976 218.633347,166.711792 217.672180,165.554810 
	C217.084579,165.440903 216.496994,165.326996 215.935471,164.369003 
	C214.635391,159.636597 210.778275,162.560593 208.040497,161.899139 
M197.549210,329.505035 
	C198.044266,328.480804 199.042587,327.391113 198.919785,326.447296 
	C198.721451,324.923218 198.132370,322.713165 197.065979,322.239807 
	C195.930069,321.735535 193.433929,322.419586 192.606934,323.448792 
	C190.175797,326.474457 191.963776,328.601746 194.713348,330.780670 
	C193.880127,332.196320 192.317947,333.623230 192.339539,335.025726 
	C192.434433,341.190887 192.986816,347.348999 193.380325,353.620728 
	C195.025665,353.620728 196.886826,353.620728 198.967728,353.620728 
	C198.967728,346.834839 199.075073,340.375427 198.878906,333.925262 
	C198.838745,332.604614 197.661194,331.318512 197.549210,329.505035 
M325.082458,353.270233 
	C323.258362,354.928528 321.434265,356.586823 319.205200,358.613251 
	C322.272888,359.912476 324.179504,360.932953 326.209717,361.540955 
	C333.033112,363.584473 341.806885,359.413086 342.104675,353.675720 
	C342.490295,346.246460 342.198792,338.782013 342.198792,331.722656 
	C337.565216,331.212921 333.383698,330.679565 329.186462,330.341003 
	C328.089386,330.252533 326.890961,330.631073 325.829041,331.032867 
	C321.062164,332.836609 319.028961,336.747284 318.776520,341.446442 
	C318.488892,346.801117 321.574738,350.409973 325.868744,353.085510 
	C325.868744,353.085510 325.792999,353.253540 325.082458,353.270233 
M213.705475,245.931259 
	C215.680664,246.101547 217.655838,246.271851 219.188812,246.404022 
	C219.188812,239.654083 219.142929,233.617325 219.265533,227.583984 
	C219.276794,227.030014 220.364182,226.497910 221.073776,226.455109 
	C221.339966,226.657959 221.606171,226.860794 221.644806,227.804276 
	C221.479904,229.546524 221.314987,231.288788 221.029327,233.955276 
	C221.022552,238.121185 220.755157,242.312302 221.154480,246.438919 
	C221.289017,247.829224 222.909897,249.900848 224.204102,250.216843 
	C231.391251,251.971603 235.789459,256.234924 236.009781,262.344910 
	C236.212982,267.980072 230.808319,274.610260 224.634232,276.143036 
	C222.276230,276.728455 219.852478,277.048981 217.292999,277.520752 
	C217.292999,281.510773 217.292999,285.268585 217.292999,289.450378 
	C222.419785,289.450378 227.395554,289.576508 232.356964,289.365021 
	C233.657684,289.309570 235.391418,288.547333 236.116531,287.531586 
	C243.450974,277.257568 263.932129,276.669006 272.042084,287.533081 
	C272.726532,288.449951 274.158691,289.323425 275.251495,289.333405 
	C280.555389,289.381653 285.862000,289.128387 291.463562,289.314240 
	C291.426056,288.247406 291.388550,287.180573 291.363342,285.224091 
	C291.362091,283.444733 291.360840,281.665375 291.715607,279.646210 
	C291.554230,279.191650 291.392883,278.737122 290.855408,277.567932 
	C289.299255,277.125946 287.706146,276.206177 286.193176,276.323059 
	C278.872101,276.888702 271.063293,268.427246 273.359314,258.558716 
	C275.251556,250.425613 281.530975,246.018494 288.356476,242.606140 
	C294.342804,239.613358 300.746613,237.455704 307.794556,234.968597 
	C312.456635,233.404190 318.797638,235.101852 321.510864,227.986267 
	C289.526886,227.986267 258.291779,227.986267 226.967804,227.183456 
	C227.400131,226.866669 227.833145,226.271927 228.264679,226.272995 
	C248.563477,226.323212 268.862091,226.442566 289.160858,226.514267 
	C300.189178,226.553223 311.217773,226.521210 322.143341,226.521210 
	C323.959534,214.641159 323.360962,213.901764 312.605408,213.900284 
	C285.787292,213.896591 258.968872,213.964203 232.151199,213.854156 
	C219.458954,213.802078 221.188705,214.068787 220.039139,225.027878 
	C219.803253,223.452652 219.567383,221.877426 219.278885,219.950851 
	C217.382126,219.950851 215.185913,219.950851 212.068848,219.769791 
	C201.409210,219.831696 190.749588,219.893585 179.554443,219.717651 
	C178.439819,219.836670 177.325211,219.955688 175.589188,220.315216 
	C176.553894,222.656906 177.147186,225.252182 178.544373,227.298615 
	C186.789246,239.374725 199.209961,243.841736 213.705475,245.931259 
M142.592636,323.865051 
	C138.104218,325.295868 135.933838,328.207184 136.202499,333.069550 
	C136.446381,337.483429 139.169952,339.379242 142.867813,340.562866 
	C145.045090,341.259796 147.273804,341.836060 149.375336,342.715240 
	C150.731247,343.282562 151.898651,344.300385 153.150558,345.116302 
	C151.765671,346.280548 150.206161,348.580078 149.028198,348.398895 
	C145.308334,347.826721 141.731400,346.325378 137.614548,345.031219 
	C136.932388,345.828156 135.689285,347.280396 134.444397,348.734741 
	C139.515778,354.195770 145.777267,354.888580 152.227173,353.827301 
	C156.488403,353.126099 159.396194,349.962067 159.768402,345.664581 
	C160.102585,341.806183 158.211960,338.593689 154.164948,337.288086 
	C151.519699,336.434692 148.708405,335.971497 146.221710,334.801636 
	C144.904648,334.182037 144.122009,332.426483 143.098099,331.183746 
	C144.600082,330.475494 146.246277,328.977692 147.574600,329.220337 
	C150.506638,329.755859 153.278549,331.168182 156.291901,332.288239 
	C157.104156,330.666199 157.891479,329.093933 158.756226,327.367065 
	C154.041122,323.698334 149.083206,322.168915 142.592636,323.865051 
M177.166016,333.513733 
	C175.981110,334.948822 174.796204,336.383942 173.611313,337.819031 
	C173.122482,337.565491 172.633652,337.311951 172.144821,337.058411 
	C172.144821,332.185303 172.144821,327.312195 172.144821,322.219055 
	C169.499817,322.219055 167.597427,322.219055 165.506653,322.219055 
	C165.506653,332.804962 165.506653,343.225800 165.506653,353.719025 
	C167.485641,353.719025 169.388718,353.719025 171.522552,353.719025 
	C171.606659,352.643219 171.498795,351.777924 171.766373,351.050751 
	C172.393265,349.347168 173.200027,347.709778 173.933929,346.045563 
	C175.113037,347.150177 176.540894,348.085663 177.427246,349.389282 
	C180.863113,354.442688 181.784271,354.850922 187.746979,353.089905 
	C186.059937,350.624023 184.549362,348.056549 182.688522,345.774719 
	C179.332001,341.658905 178.893082,338.105560 183.812653,334.842987 
	C184.953659,334.086304 185.646225,332.653412 186.545135,331.531677 
	C186.363770,331.129425 186.182419,330.727173 186.001053,330.324890 
	C183.246307,331.211731 180.491562,332.098572 177.166016,333.513733 
M325.258911,199.772125 
	C326.871490,199.699158 328.484070,199.626205 330.289734,199.544495 
	C330.289734,194.480682 330.289734,189.736313 330.289734,184.578354 
	C311.806122,184.578354 293.588043,184.578354 275.229370,184.578354 
	C275.229370,189.738724 275.229370,194.488449 275.229370,199.781586 
	C291.756378,199.781586 308.035248,199.781586 325.258911,199.772125 
M369.959076,344.778381 
	C371.977814,340.919922 370.467682,337.567719 368.122650,334.617004 
	C365.247070,330.998718 361.427307,329.346527 356.735596,330.644592 
	C351.695526,332.039062 348.222900,336.310974 347.971863,341.333313 
	C347.678223,347.207581 350.027466,351.492798 354.552643,353.337219 
	C359.613708,355.400024 365.487213,354.048187 369.339050,349.775940 
	C368.128632,348.756531 366.926361,347.743988 365.817902,346.810425 
	C359.728333,350.431946 356.965027,349.922516 355.065521,344.870972 
	C359.783234,344.870972 364.419739,344.870972 369.959076,344.778381 
M266.121704,336.185486 
	C261.858246,336.185486 257.594757,336.185486 253.203323,336.185486 
	C253.203323,333.742218 253.203323,331.821259 253.203323,329.651611 
	C258.810059,329.651611 264.201843,329.651611 269.695984,329.651611 
	C269.695984,327.676208 269.695984,325.953217 269.695984,324.174286 
	C262.057312,324.174286 254.677444,324.174286 247.031754,324.174286 
	C247.031754,329.265076 247.031754,334.060364 247.031754,338.855621 
	C247.031754,343.794800 247.031754,348.733948 247.031754,353.659058 
	C249.296310,353.659058 251.018631,353.659058 253.079193,353.659058 
	C253.079193,349.764008 253.079193,346.167603 253.079193,342.145447 
	C258.147980,342.145447 262.890839,342.145447 268.382690,342.145447 
	C267.856354,339.815399 267.453705,338.032990 266.121704,336.185486 
M280.866211,353.950500 
	C281.362976,353.955933 281.874817,353.884521 282.354218,353.978485 
	C288.494324,355.181763 293.821869,352.455994 295.988495,346.978424 
	C298.223114,341.328918 296.185730,334.750458 291.309021,331.868896 
	C286.488434,329.020477 278.998871,330.183868 275.397644,334.340485 
	C270.268066,340.261139 272.152039,348.069977 280.866211,353.950500 
M285.344299,153.945694 
	C284.230469,154.934341 283.116638,155.922989 282.002777,156.911621 
	C283.129089,157.631668 284.326569,158.263229 285.361938,159.096283 
	C286.426880,159.953125 287.844086,160.838989 288.225708,162.001526 
	C290.489868,168.898270 295.271179,172.129532 302.208344,170.240677 
	C305.559052,169.328339 309.903076,168.355072 309.132660,162.848038 
	C308.984741,161.790710 310.470093,160.504883 311.201935,159.324463 
	C311.710693,159.557541 312.219452,159.790619 312.728210,160.023682 
	C312.636658,161.899979 312.552826,163.776688 312.450714,165.652390 
	C312.386902,166.824326 311.910919,168.839508 312.287079,169.010742 
	C313.516052,169.570206 315.051056,169.457458 316.059814,169.561218 
	C316.059814,166.227722 315.960785,163.647202 316.084015,161.077347 
	C316.251160,157.591507 315.020050,155.075027 311.802368,153.453003 
	C303.891846,149.465317 296.025635,146.259048 287.901093,152.952667 
	C287.407074,153.359680 286.704712,153.513870 285.344299,153.945694 
M212.744904,336.505493 
	C212.744904,331.743713 212.744904,326.981903 212.744904,322.240082 
	C210.424179,322.240082 208.677917,322.240082 206.757278,322.240082 
	C206.757278,332.926605 206.757278,343.346558 206.757278,353.673035 
	C208.806595,353.673035 210.703690,353.673035 212.743927,353.673035 
	C212.743927,348.084167 212.743927,342.793396 212.744904,336.505493 
M226.988892,343.471100 
	C226.988892,336.387848 226.988892,329.304565 226.988892,322.290131 
	C224.409454,322.290131 222.354218,322.290131 220.270386,322.290131 
	C220.270386,332.982147 220.270386,343.349854 220.270386,353.656464 
	C222.626862,353.656464 224.677353,353.656464 226.989548,353.656464 
	C226.989548,350.387878 226.989548,347.422852 226.988892,343.471100 
M303.642792,331.032959 
	C303.204224,331.444366 302.387970,331.851593 302.383362,332.267792 
	C302.304932,339.353546 302.327118,346.440430 302.327118,353.743469 
	C304.690460,353.743469 306.599335,353.743469 308.371826,353.743469 
	C311.399811,347.997925 303.737579,338.035645 315.821777,336.394257 
	C315.559357,334.162689 315.338501,332.284576 315.237183,331.423065 
	C311.136353,331.265106 307.823792,331.137512 303.642792,331.032959 
z"/>
<path fill="#FBFBFB" opacity="1.000000" stroke="none" 
	d="
M306.966003,234.929138 
	C300.746613,237.455704 294.342804,239.613358 288.356476,242.606140 
	C281.530975,246.018494 275.251556,250.425613 273.359314,258.558716 
	C271.063293,268.427246 278.872101,276.888702 286.193176,276.323059 
	C287.706146,276.206177 289.299255,277.125946 290.938019,278.194580 
	C291.133636,279.176178 291.246613,279.531097 291.359589,279.886017 
	C291.360840,281.665375 291.362091,283.444733 291.195923,285.997375 
	C291.074860,287.507782 291.121277,288.244843 291.167664,288.981934 
	C285.862000,289.128387 280.555389,289.381653 275.251495,289.333405 
	C274.158691,289.323425 272.726532,288.449951 272.042084,287.533081 
	C263.932129,276.669006 243.450974,277.257568 236.116531,287.531586 
	C235.391418,288.547333 233.657684,289.309570 232.356964,289.365021 
	C227.395554,289.576508 222.419785,289.450378 217.292999,289.450378 
	C217.292999,285.268585 217.292999,281.510773 217.292999,277.520752 
	C219.852478,277.048981 222.276230,276.728455 224.634232,276.143036 
	C230.808319,274.610260 236.212982,267.980072 236.009781,262.344910 
	C235.789459,256.234924 231.391251,251.971603 224.204102,250.216843 
	C222.909897,249.900848 221.289017,247.829224 221.154480,246.438919 
	C220.755157,242.312302 221.022552,238.121185 221.513824,233.475128 
	C228.951080,233.307800 235.902374,233.845337 242.856857,233.890594 
	C262.329041,234.017365 281.802643,233.913635 301.275391,233.987320 
	C303.173401,233.994492 305.069183,234.600891 306.966003,234.929138 
z"/>
<path fill="#FBFBFB" opacity="1.000000" stroke="none" 
	d="
M221.872360,227.063644 
	C221.606171,226.860794 221.339966,226.657959 221.045898,225.966003 
	C221.018021,225.476883 220.941223,224.998337 220.941223,224.998337 
	C221.188705,214.068787 219.458954,213.802078 232.151199,213.854156 
	C258.968872,213.964203 285.787292,213.896591 312.605408,213.900284 
	C323.360962,213.901764 323.959534,214.641159 322.143341,226.521210 
	C311.217773,226.521210 300.189178,226.553223 289.160858,226.514267 
	C268.862091,226.442566 248.563477,226.323212 228.264679,226.272995 
	C227.833145,226.271927 227.400131,226.866669 226.629974,227.599091 
	C224.818893,227.697708 223.345627,227.380676 221.872360,227.063644 
z"/>
<path fill="#FBFBFB" opacity="1.000000" stroke="none" 
	d="
M180.089951,219.955475 
	C190.749588,219.893585 201.409210,219.831696 212.545563,220.331879 
	C213.004044,229.171402 212.985794,237.448822 212.967560,245.726242 
	C199.209961,243.841736 186.789246,239.374725 178.544373,227.298615 
	C177.147186,225.252182 176.553894,222.656906 176.286957,220.250107 
	C178.019806,220.108490 179.054871,220.031982 180.089951,219.955475 
z"/>
<path fill="#F8BE60" opacity="1.000000" stroke="none" 
	d="
M183.950958,168.514084 
	C184.468063,168.389053 184.985168,168.264023 186.095642,167.912079 
	C186.824539,167.201965 186.960052,166.718750 187.095566,166.235535 
	C188.135345,164.865143 189.175125,163.494766 190.759186,162.251480 
	C196.934097,162.191757 202.564713,162.004944 208.195328,161.818115 
	C208.195328,161.818130 208.040497,161.899139 208.088562,162.171417 
	C209.909973,163.061615 211.683334,163.679535 214.228104,164.566223 
	C214.340454,165.065186 214.657898,166.474976 214.944550,168.326294 
	C214.903809,174.838089 214.893845,180.908356 214.628601,187.277252 
	C213.565445,190.075058 212.757568,192.574234 211.489807,195.056885 
	C206.689484,195.040771 202.349045,195.041168 197.606308,195.030853 
	C196.548569,195.053787 195.875488,195.002548 195.240448,195.134506 
	C189.903824,196.243393 189.206680,195.631973 189.898499,190.520950 
	C190.051788,189.388535 190.181641,188.183212 189.964020,187.082291 
	C188.978653,182.097321 187.981339,177.106369 186.661804,172.205490 
	C186.480362,171.531601 184.469162,171.350372 183.305099,170.941055 
	C183.257599,170.486954 183.210114,170.032852 183.432037,169.233978 
	C183.701447,168.889221 183.950958,168.514084 183.950958,168.514084 
M208.645370,168.462952 
	C204.543198,168.462952 200.441010,168.462952 195.715622,168.462952 
	C196.213470,172.702332 196.645660,176.382416 197.663254,180.607773 
	C201.434601,180.365967 205.205933,180.124161 209.104538,179.454865 
	C209.104538,179.454865 209.280991,179.045227 209.996017,178.787262 
	C209.763779,175.536362 209.531540,172.285446 208.645370,168.462952 
M195.791779,185.588470 
	C195.643524,189.324158 198.708618,191.103439 201.107834,190.576172 
	C204.320816,189.870056 208.823868,191.755219 211.219849,187.303757 
	C206.331711,183.582077 201.458908,182.935028 195.791779,185.588470 
z"/>
<path fill="#D4D4D5" opacity="1.000000" stroke="none" 
	d="
M221.758575,227.433960 
	C223.345627,227.380676 224.818893,227.697708 226.674423,228.000488 
	C258.291779,227.986267 289.526886,227.986267 321.510864,227.986267 
	C318.797638,235.101852 312.456635,233.404190 307.380280,234.948853 
	C305.069183,234.600891 303.173401,233.994492 301.275391,233.987320 
	C281.802643,233.913635 262.329041,234.017365 242.856857,233.890594 
	C235.902374,233.845337 228.951080,233.307800 221.574219,233.013000 
	C221.314987,231.288788 221.479904,229.546524 221.758575,227.433960 
z"/>
<path fill="#F1F2F2" opacity="1.000000" stroke="none" 
	d="
M326.022430,352.983765 
	C321.574738,350.409973 318.488892,346.801117 318.776520,341.446442 
	C319.028961,336.747284 321.062164,332.836609 325.829041,331.032867 
	C326.890961,330.631073 328.089386,330.252533 329.186462,330.341003 
	C333.383698,330.679565 337.565216,331.212921 342.198792,331.722656 
	C342.198792,338.782013 342.490295,346.246460 342.104675,353.675720 
	C341.806885,359.413086 333.033112,363.584473 326.209717,361.540955 
	C324.179504,360.932953 322.272888,359.912476 319.205200,358.613251 
	C321.434265,356.586823 323.258362,354.928528 325.499329,353.582764 
	C327.666229,356.382324 330.079041,357.206879 332.743225,355.870422 
	C334.080475,355.199646 334.965546,353.627533 336.773315,351.695404 
	C332.113342,352.253845 329.067871,352.618805 326.022430,352.983765 
M324.928162,343.157867 
	C326.268921,345.872589 328.125580,348.148895 331.445984,347.106415 
	C333.085815,346.591553 335.029755,345.186768 335.655701,343.690735 
	C336.934998,340.633423 336.111237,337.638397 332.652832,336.375793 
	C328.305176,334.788574 325.921051,336.698090 324.928162,343.157867 
z"/>
<path fill="#F1F2F2" opacity="1.000000" stroke="none" 
	d="
M142.983826,323.754822 
	C149.083206,322.168915 154.041122,323.698334 158.756226,327.367065 
	C157.891479,329.093933 157.104156,330.666199 156.291901,332.288239 
	C153.278549,331.168182 150.506638,329.755859 147.574600,329.220337 
	C146.246277,328.977692 144.600082,330.475494 143.098099,331.183746 
	C144.122009,332.426483 144.904648,334.182037 146.221710,334.801636 
	C148.708405,335.971497 151.519699,336.434692 154.164948,337.288086 
	C158.211960,338.593689 160.102585,341.806183 159.768402,345.664581 
	C159.396194,349.962067 156.488403,353.126099 152.227173,353.827301 
	C145.777267,354.888580 139.515778,354.195770 134.444397,348.734741 
	C135.689285,347.280396 136.932388,345.828156 137.614548,345.031219 
	C141.731400,346.325378 145.308334,347.826721 149.028198,348.398895 
	C150.206161,348.580078 151.765671,346.280548 153.150543,345.116272 
	C151.898651,344.300385 150.731247,343.282562 149.375336,342.715240 
	C147.273804,341.836060 145.045090,341.259796 142.867813,340.562866 
	C139.169952,339.379242 136.446381,337.483429 136.202499,333.069550 
	C135.933838,328.207184 138.104218,325.295868 142.983826,323.754822 
z"/>
<path fill="#E6B86B" opacity="1.000000" stroke="none" 
	d="
M211.949677,195.073410 
	C212.757568,192.574234 213.565445,190.075058 214.644943,187.689545 
	C215.286942,189.941650 215.657318,192.080093 216.027695,194.218552 
	C217.051102,186.347427 216.982880,178.611832 217.104462,170.879211 
	C217.131104,169.184219 217.833572,167.499863 218.224792,165.810608 
	C218.633347,166.711792 219.041885,167.612976 219.716064,169.048615 
	C219.981720,179.910767 219.981720,190.238434 219.981720,200.563934 
	C218.469452,200.936722 216.740631,201.362885 215.011826,201.789062 
	C204.496490,203.275192 194.036423,202.185623 183.131607,201.362320 
	C183.131607,191.373398 183.131607,181.624786 183.218353,171.408600 
	C184.469162,171.350372 186.480362,171.531601 186.661804,172.205490 
	C187.981339,177.106369 188.978653,182.097321 189.964020,187.082291 
	C190.181641,188.183212 190.051788,189.388535 189.898499,190.520950 
	C189.206680,195.631973 189.903824,196.243393 195.240448,195.134506 
	C195.875488,195.002548 196.548569,195.053787 197.652191,195.387207 
	C202.279465,197.970825 209.478333,197.616898 211.949677,195.073410 
z"/>
<path fill="#F8BE60" opacity="1.000000" stroke="none" 
	d="
M243.217255,183.985809 
	C243.217255,183.985809 243.069504,183.574066 243.022491,182.968369 
	C243.049377,179.508224 242.181152,177.370316 238.930557,177.044357 
	C238.930557,177.044357 238.987366,176.994812 238.986328,176.648132 
	C238.451416,174.845871 237.917526,173.390305 237.383636,171.934738 
	C237.322571,171.507645 237.261505,171.080536 237.375427,170.230164 
	C237.455811,169.536026 237.361237,169.265152 237.266663,168.994293 
	C237.241684,168.533569 237.216690,168.072861 237.462250,167.120499 
	C237.829147,166.181946 237.925491,165.735046 238.021820,165.288132 
	C238.379562,164.282364 238.737289,163.276596 239.517944,161.931580 
	C240.036804,161.428879 240.071365,161.253281 240.044540,161.065521 
	C240.044540,161.065521 239.994965,161.038467 240.376007,160.984894 
	C245.959473,157.155075 251.471680,155.530396 257.714813,158.308167 
	C258.722656,158.756577 259.921753,158.775085 261.032440,158.992310 
	C261.032440,158.992310 260.998810,159.002441 261.005157,159.343857 
	C261.697388,160.443451 262.383240,161.201630 263.069122,161.959808 
	C263.069122,161.959808 263.001923,161.996902 263.005798,162.356049 
	C265.219238,168.187256 263.681396,173.228592 261.255890,178.179657 
	C260.146332,180.444504 259.092987,182.736877 257.747040,185.198959 
	C256.913757,185.825104 256.347656,186.269073 255.781525,186.713058 
	C255.458252,186.536209 255.134995,186.359360 254.811722,186.182510 
	C256.087769,181.715714 257.363831,177.248917 258.884674,171.925278 
	C254.583160,171.471405 250.448532,171.035141 244.952789,170.455261 
	C245.607346,174.428482 246.526443,178.123627 246.706467,181.854462 
	C246.803940,183.874130 245.640610,185.954666 244.995392,187.687897 
	C244.368927,186.240631 243.793091,185.113220 243.217255,183.985809 
z"/>
<path fill="#F1F2F2" opacity="1.000000" stroke="none" 
	d="
M177.451416,333.249573 
	C180.491562,332.098572 183.246307,331.211731 186.001053,330.324890 
	C186.182419,330.727173 186.363770,331.129425 186.545135,331.531677 
	C185.646225,332.653412 184.953659,334.086304 183.812653,334.842987 
	C178.893082,338.105560 179.332001,341.658905 182.688522,345.774719 
	C184.549362,348.056549 186.059937,350.624023 187.746979,353.089905 
	C181.784271,354.850922 180.863113,354.442688 177.427246,349.389282 
	C176.540894,348.085663 175.113037,347.150177 173.933960,346.045563 
	C173.200027,347.709778 172.393265,349.347168 171.766373,351.050751 
	C171.498795,351.777924 171.606659,352.643219 171.522552,353.719025 
	C169.388718,353.719025 167.485641,353.719025 165.506653,353.719025 
	C165.506653,343.225800 165.506653,332.804962 165.506653,322.219055 
	C167.597427,322.219055 169.499817,322.219055 172.144821,322.219055 
	C172.144821,327.312195 172.144821,332.185303 172.144821,337.058411 
	C172.633652,337.311951 173.122482,337.565491 173.611313,337.819031 
	C174.796204,336.383942 175.981110,334.948822 177.451416,333.249573 
z"/>
<path fill="#E2E2DF" opacity="1.000000" stroke="none" 
	d="
M324.786499,199.776855 
	C308.035248,199.781586 291.756378,199.781586 275.229370,199.781586 
	C275.229370,194.488449 275.229370,189.738724 275.229370,184.578354 
	C293.588043,184.578354 311.806122,184.578354 330.289734,184.578354 
	C330.289734,189.736313 330.289734,194.480682 330.289734,199.544495 
	C328.484070,199.626205 326.871490,199.699158 324.786499,199.776855 
M291.817078,196.051193 
	C293.232422,195.936508 294.647736,195.821823 296.537689,196.262695 
	C300.996185,196.166504 305.454712,196.070312 310.761108,196.105377 
	C316.457642,196.453583 322.154205,196.801788 327.973999,197.157516 
	C327.973999,193.141068 327.973999,190.074326 327.973999,186.916718 
	C321.355927,186.916718 315.067047,186.916718 308.630188,186.850815 
	C308.630188,186.850815 308.526764,186.975494 307.850403,186.351181 
	C302.086029,186.272232 296.319641,186.067825 290.558044,186.160904 
	C287.044617,186.217667 283.538605,186.732452 279.622528,187.672073 
	C279.009521,190.589874 278.396484,193.507690 277.580109,197.393448 
	C282.249878,196.757645 285.613708,196.299652 289.642029,195.930344 
	C290.088074,195.916412 290.534088,195.902481 291.817078,196.051193 
z"/>
<path fill="#EDEEEF" opacity="1.000000" stroke="none" 
	d="
M369.507629,344.824677 
	C364.419739,344.870972 359.783234,344.870972 355.065521,344.870972 
	C356.965027,349.922516 359.728333,350.431946 365.817902,346.810425 
	C366.926361,347.743988 368.128632,348.756531 369.339050,349.775940 
	C365.487213,354.048187 359.613708,355.400024 354.552643,353.337219 
	C350.027466,351.492798 347.678223,347.207581 347.971863,341.333313 
	C348.222900,336.310974 351.695526,332.039062 356.735596,330.644592 
	C361.427307,329.346527 365.247070,330.998718 368.122650,334.617004 
	C370.467682,337.567719 371.977814,340.919922 369.507629,344.824677 
M356.718079,340.086151 
	C359.134399,340.086151 361.550720,340.086151 364.516632,340.086151 
	C363.810547,338.726776 363.510742,337.306030 362.927063,337.177856 
	C360.845428,336.720581 358.659058,336.558258 356.534973,336.679901 
	C356.229767,336.697388 356.048859,338.885468 356.718079,340.086151 
z"/>
<path fill="#F5F6F6" opacity="1.000000" stroke="none" 
	d="
M266.586395,336.218018 
	C267.453705,338.032990 267.856354,339.815399 268.382690,342.145447 
	C262.890839,342.145447 258.147980,342.145447 253.079193,342.145447 
	C253.079193,346.167603 253.079193,349.764008 253.079193,353.659058 
	C251.018631,353.659058 249.296310,353.659058 247.031754,353.659058 
	C247.031754,348.733948 247.031754,343.794800 247.031754,338.855621 
	C247.031754,334.060364 247.031754,329.265076 247.031754,324.174286 
	C254.677444,324.174286 262.057312,324.174286 269.695984,324.174286 
	C269.695984,325.953217 269.695984,327.676208 269.695984,329.651611 
	C264.201843,329.651611 258.810059,329.651611 253.203323,329.651611 
	C253.203323,331.821259 253.203323,333.742218 253.203323,336.185486 
	C257.594757,336.185486 261.858246,336.185486 266.586395,336.218018 
z"/>
<path fill="#F1F2F2" opacity="1.000000" stroke="none" 
	d="
M280.480316,353.879211 
	C272.152039,348.069977 270.268066,340.261139 275.397644,334.340485 
	C278.998871,330.183868 286.488434,329.020477 291.309021,331.868896 
	C296.185730,334.750458 298.223114,341.328918 295.988495,346.978424 
	C293.821869,352.455994 288.494324,355.181763 282.354218,353.978485 
	C281.874817,353.884521 281.362976,353.955933 280.480316,353.879211 
M288.079651,347.697998 
	C291.309326,344.857788 292.345001,341.329224 288.977386,338.393921 
	C287.300293,336.932159 282.485657,336.129395 281.824646,337.031677 
	C280.268433,339.155914 279.426422,342.690338 280.002625,345.273407 
	C280.786713,348.788544 283.945435,349.830353 288.079651,347.697998 
z"/>
<path fill="#D5B476" opacity="1.000000" stroke="none" 
	d="
M285.721802,153.865692 
	C286.704712,153.513870 287.407074,153.359680 287.901093,152.952667 
	C296.025635,146.259048 303.891846,149.465317 311.802368,153.453003 
	C315.020050,155.075027 316.251160,157.591507 316.084015,161.077347 
	C315.960785,163.647202 316.059814,166.227722 316.059814,169.561218 
	C315.051056,169.457458 313.516052,169.570206 312.287079,169.010742 
	C311.910919,168.839508 312.386902,166.824326 312.450714,165.652390 
	C312.552826,163.776688 312.636658,161.899979 312.728210,160.023682 
	C312.219452,159.790619 311.710693,159.557541 311.201935,159.324463 
	C310.470093,160.504883 308.984741,161.790710 309.132660,162.848038 
	C309.903076,168.355072 305.559052,169.328339 302.208344,170.240677 
	C295.271179,172.129532 290.489868,168.898270 288.225708,162.001526 
	C287.844086,160.838989 286.426880,159.953125 285.361938,159.096283 
	C284.326569,158.263229 283.129089,157.631668 282.002777,156.911621 
	C283.116638,155.922989 284.230469,154.934341 285.721802,153.865692 
M304.156036,153.105972 
	C297.688080,149.093964 293.146698,153.734238 287.809601,156.003601 
	C295.498322,162.296158 302.729889,163.095657 310.023560,156.254440 
	C308.263153,155.339279 306.521820,154.434036 304.156036,153.105972 
M296.821167,167.035019 
	C298.943207,167.019806 301.178772,167.403488 303.145813,166.843674 
	C304.377289,166.493210 305.204590,164.722717 306.213257,163.589386 
	C305.870453,162.884171 305.527618,162.178955 305.184784,161.473740 
	C301.041656,166.309692 296.821747,164.924438 292.584656,162.144913 
	C292.279449,162.765411 291.974243,163.385895 291.669037,164.006378 
	C293.091949,165.011154 294.514832,166.015930 296.821167,167.035019 
z"/>
<path fill="#E6B86B" opacity="1.000000" stroke="none" 
	d="
M245.046021,188.007736 
	C245.640610,185.954666 246.803940,183.874130 246.706467,181.854462 
	C246.526443,178.123627 245.607346,174.428482 244.952789,170.455261 
	C250.448532,171.035141 254.583160,171.471405 258.884674,171.925278 
	C257.363831,177.248917 256.087769,181.715714 254.811722,186.182510 
	C255.134995,186.359360 255.458252,186.536209 255.781525,186.713058 
	C256.347656,186.269073 256.913757,185.825104 257.745819,185.609787 
	C258.001587,187.209015 257.991425,188.579605 257.981262,189.950180 
	C257.981232,189.950180 258.010834,189.982529 257.827454,190.067917 
	C257.576813,190.252045 257.430145,190.391312 257.456238,190.442383 
	C257.559174,190.643951 257.716309,190.817825 257.853363,191.001968 
	C257.899139,191.438019 257.944916,191.874069 257.512115,192.649902 
	C254.694199,193.279907 252.354843,193.570129 250.015503,193.860367 
	C252.363647,194.253647 254.711792,194.646912 257.437805,195.409912 
	C257.809998,196.262405 257.804321,196.745178 257.798645,197.227966 
	C256.429596,197.384476 255.060532,197.540985 252.973846,197.419434 
	C249.568985,197.064209 246.881775,196.987061 244.194550,196.909912 
	C244.144989,196.479721 244.095413,196.049530 244.421112,195.145996 
	C244.879608,192.451019 244.962814,190.229385 245.046021,188.007736 
M252.672913,177.431061 
	C251.778259,176.644211 250.883606,175.857346 249.988953,175.070496 
	C249.562210,175.371872 249.135483,175.673264 248.708740,175.974640 
	C249.438797,178.346832 250.168869,180.719025 250.898926,183.091217 
	C251.423615,182.945877 251.948303,182.800552 252.472992,182.655228 
	C252.472992,181.139343 252.472992,179.623444 252.672913,177.431061 
z"/>
<path fill="#EDEEEF" opacity="1.000000" stroke="none" 
	d="
M212.744415,337.004089 
	C212.743927,342.793396 212.743927,348.084167 212.743927,353.673035 
	C210.703690,353.673035 208.806595,353.673035 206.757278,353.673035 
	C206.757278,343.346558 206.757278,332.926605 206.757278,322.240082 
	C208.677917,322.240082 210.424179,322.240082 212.744904,322.240082 
	C212.744904,326.981903 212.744904,331.743713 212.744415,337.004089 
z"/>
<path fill="#EDEEEF" opacity="1.000000" stroke="none" 
	d="
M226.989227,343.964478 
	C226.989548,347.422852 226.989548,350.387878 226.989548,353.656464 
	C224.677353,353.656464 222.626862,353.656464 220.270386,353.656464 
	C220.270386,343.349854 220.270386,332.982147 220.270386,322.290131 
	C222.354218,322.290131 224.409454,322.290131 226.988892,322.290131 
	C226.988892,329.304565 226.988892,336.387848 226.989227,343.964478 
z"/>
<path fill="#EDEEEF" opacity="1.000000" stroke="none" 
	d="
M304.076996,331.021423 
	C307.823792,331.137512 311.136353,331.265106 315.237183,331.423065 
	C315.338501,332.284576 315.559357,334.162689 315.821777,336.394257 
	C303.737579,338.035645 311.399811,347.997925 308.371826,353.743469 
	C306.599335,353.743469 304.690460,353.743469 302.327118,353.743469 
	C302.327118,346.440430 302.304932,339.353546 302.383362,332.267792 
	C302.387970,331.851593 303.204224,331.444366 304.076996,331.021423 
z"/>
<path fill="#E2E2DF" opacity="1.000000" stroke="none" 
	d="
M213.336517,245.828751 
	C212.985794,237.448822 213.004044,229.171402 213.005981,220.422424 
	C215.185913,219.950851 217.382126,219.950851 219.278885,219.950851 
	C219.567383,221.877426 219.803253,223.452652 220.490173,225.013107 
	C220.941223,224.998337 221.018021,225.476883 220.984940,225.716263 
	C220.364182,226.497910 219.276794,227.030014 219.265533,227.583984 
	C219.142929,233.617325 219.188812,239.654083 219.188812,246.404022 
	C217.655838,246.271851 215.680664,246.101547 213.336517,245.828751 
z"/>
<path fill="#F5F6F6" opacity="1.000000" stroke="none" 
	d="
M197.007919,330.016510 
	C197.661194,331.318512 198.838745,332.604614 198.878906,333.925262 
	C199.075073,340.375427 198.967728,346.834839 198.967728,353.620728 
	C196.886826,353.620728 195.025665,353.620728 193.380325,353.620728 
	C192.986816,347.348999 192.434433,341.190887 192.339539,335.025726 
	C192.317947,333.623230 193.880127,332.196320 195.037964,330.335327 
	C195.911041,329.932159 196.459473,329.974335 197.007919,330.016510 
z"/>
<path fill="#D5B476" opacity="1.000000" stroke="none" 
	d="
M215.440735,201.889862 
	C216.740631,201.362885 218.469452,200.936722 219.981720,200.563934 
	C219.981720,190.238434 219.981720,179.910767 219.971649,169.168579 
	C220.809570,169.336075 222.388138,169.907288 222.396912,170.501694 
	C222.548035,180.737946 222.505585,190.977051 222.505585,201.990646 
	C220.017609,201.990646 217.943619,201.990646 215.440735,201.889862 
z"/>
<path fill="#E2E2DF" opacity="1.000000" stroke="none" 
	d="
M197.278564,329.760773 
	C196.459473,329.974335 195.911041,329.932159 195.135406,329.979889 
	C191.963776,328.601746 190.175797,326.474457 192.606934,323.448792 
	C193.433929,322.419586 195.930069,321.735535 197.065979,322.239807 
	C198.132370,322.713165 198.721451,324.923218 198.919785,326.447296 
	C199.042587,327.391113 198.044266,328.480804 197.278564,329.760773 
z"/>
<path fill="#D5B476" opacity="1.000000" stroke="none" 
	d="
M258.233765,189.668152 
	C257.991425,188.579605 258.001587,187.209015 258.012970,185.427612 
	C259.092987,182.736877 260.146332,180.444504 261.255890,178.179657 
	C263.681396,173.228592 265.219238,168.187256 263.027283,162.324219 
	C268.153717,167.368362 265.748596,172.718567 263.053436,178.224670 
	C261.290070,181.827194 259.992462,185.657715 258.233765,189.668152 
z"/>
<path fill="#D5B476" opacity="1.000000" stroke="none" 
	d="
M260.893951,158.682693 
	C259.921753,158.775085 258.722656,158.756577 257.714813,158.308167 
	C251.471680,155.530396 245.959473,157.155075 240.402740,160.984253 
	C240.365967,160.234421 240.683472,159.431671 241.000946,158.319031 
	C241.000916,158.009155 240.952240,158.064911 240.952240,158.064911 
	C247.604919,154.851517 254.226746,153.620483 260.893951,158.682693 
z"/>
<path fill="#AD8F5C" opacity="1.000000" stroke="none" 
	d="
M217.948486,165.682709 
	C217.833572,167.499863 217.131104,169.184219 217.104462,170.879211 
	C216.982880,178.611832 217.051102,186.347427 216.027695,194.218552 
	C215.657318,192.080093 215.286942,189.941650 214.900223,187.390900 
	C214.893845,180.908356 214.903809,174.838089 215.190338,168.157806 
	C215.614395,166.769562 215.761887,165.991318 215.909393,165.213074 
	C216.496994,165.326996 217.084579,165.440903 217.948486,165.682709 
z"/>
<path fill="#AD8F5C" opacity="1.000000" stroke="none" 
	d="
M244.271515,197.254181 
	C246.881775,196.987061 249.568985,197.064209 252.552139,197.380203 
	C253.667099,198.279266 254.486145,198.939468 255.337173,199.625458 
	C251.369614,202.947052 249.810196,202.642532 247.444748,198.898087 
	C246.954742,198.122421 245.408127,198.014236 244.271515,197.254181 
z"/>
<path fill="#D5B476" opacity="1.000000" stroke="none" 
	d="
M241.028992,157.985062 
	C240.400208,157.932480 239.485397,158.171967 239.130234,157.830063 
	C237.406830,156.171051 235.833511,154.356125 234.207031,152.596436 
	C234.834961,152.136856 235.974457,151.232681 236.017105,151.281769 
	C237.715134,153.235611 239.313782,155.275879 240.938751,157.684937 
	C240.952240,158.064911 241.000916,158.009155 241.028992,157.985062 
z"/>
<path fill="#E6B86B" opacity="1.000000" stroke="none" 
	d="
M207.898743,161.500137 
	C202.564713,162.004944 196.934097,162.191757 191.076660,162.082932 
	C196.433960,161.585587 202.018066,161.383865 207.898743,161.500137 
z"/>
<path fill="#E6B86B" opacity="1.000000" stroke="none" 
	d="
M215.922424,164.791046 
	C215.761887,165.991318 215.614395,166.769562 215.221115,167.716278 
	C214.657898,166.474976 214.340454,165.065186 214.228104,164.566223 
	C211.683334,163.679535 209.909973,163.061615 208.148758,162.108109 
	C210.778275,162.560593 214.635391,159.636597 215.922424,164.791046 
z"/>
<path fill="#D5B476" opacity="1.000000" stroke="none" 
	d="
M244.995392,187.687897 
	C244.962814,190.229385 244.879608,192.451019 244.538635,194.840347 
	C243.882080,191.601074 243.483307,188.194138 243.150894,184.386505 
	C243.793091,185.113220 244.368927,186.240631 244.995392,187.687897 
z"/>
<path fill="#D5B476" opacity="1.000000" stroke="none" 
	d="
M239.058868,177.359406 
	C242.181152,177.370316 243.049377,179.508224 242.972397,182.755463 
	C241.708603,181.323654 240.447876,179.499069 239.058868,177.359406 
z"/>
<path fill="#D5B476" opacity="1.000000" stroke="none" 
	d="
M250.441895,193.935181 
	C252.354843,193.570129 254.694199,193.279907 257.450073,192.974304 
	C255.533813,193.309280 253.201050,193.659637 250.441895,193.935181 
z"/>
<path fill="#D5B476" opacity="1.000000" stroke="none" 
	d="
M237.276474,172.291779 
	C237.917526,173.390305 238.451416,174.845871 238.972046,176.682831 
	C238.362289,175.592438 237.765793,174.120636 237.276474,172.291779 
z"/>
<path fill="#D5B476" opacity="1.000000" stroke="none" 
	d="
M263.024872,161.640366 
	C262.383240,161.201630 261.697388,160.443451 261.009277,159.326813 
	C261.664886,159.752533 262.322754,160.536728 263.024872,161.640366 
z"/>
<path fill="#AD8F5C" opacity="1.000000" stroke="none" 
	d="
M291.315613,289.148071 
	C291.121277,288.244843 291.074860,287.507782 291.189758,286.442200 
	C291.388550,287.180573 291.426056,288.247406 291.315613,289.148071 
z"/>
<path fill="#E2E2DF" opacity="1.000000" stroke="none" 
	d="
M179.822205,219.836563 
	C179.054871,220.031982 178.019806,220.108490 176.597656,220.129852 
	C177.325211,219.955688 178.439819,219.836670 179.822205,219.836563 
z"/>
<path fill="#AD8F5C" opacity="1.000000" stroke="none" 
	d="
M257.993317,197.174713 
	C257.804321,196.745178 257.809998,196.262405 257.849670,195.539856 
	C257.985107,195.907196 258.086548,196.514343 257.993317,197.174713 
z"/>
<path fill="#AD8F5C" opacity="1.000000" stroke="none" 
	d="
M291.537598,279.766113 
	C291.246613,279.531097 291.133636,279.176178 291.126068,278.551910 
	C291.392883,278.737122 291.554230,279.191650 291.537598,279.766113 
z"/>
<path fill="#D5B476" opacity="1.000000" stroke="none" 
	d="
M237.854584,165.459213 
	C237.925491,165.735046 237.829147,166.181946 237.557724,166.786896 
	C237.484207,166.506714 237.585770,166.068512 237.854584,165.459213 
z"/>
<path fill="#E6B86B" opacity="1.000000" stroke="none" 
	d="
M186.813812,166.290375 
	C186.960052,166.718750 186.824539,167.201965 186.496094,167.847717 
	C186.379456,167.455246 186.455750,166.900238 186.813812,166.290375 
z"/>
<path fill="#E6B86B" opacity="1.000000" stroke="none" 
	d="
M183.796783,168.471497 
	C183.950958,168.514084 183.701447,168.889221 183.592804,168.928192 
	C183.340546,168.729782 183.393356,168.550385 183.796783,168.471497 
z"/>
<path fill="#D5B476" opacity="1.000000" stroke="none" 
	d="
M239.938568,161.158386 
	C240.071365,161.253281 240.036804,161.428879 239.852585,161.689423 
	C239.700867,161.597168 239.723633,161.418732 239.938568,161.158386 
z"/>
<path fill="#D5B476" opacity="1.000000" stroke="none" 
	d="
M257.925598,190.754913 
	C257.716309,190.817825 257.559174,190.643951 257.456238,190.442383 
	C257.430145,190.391312 257.576813,190.252045 257.806274,190.073639 
	C257.978302,190.165268 257.988068,190.336563 257.925598,190.754913 
z"/>
<path fill="#D5B476" opacity="1.000000" stroke="none" 
	d="
M237.170380,169.248596 
	C237.361237,169.265152 237.455811,169.536026 237.415222,169.906586 
	C237.211380,169.838486 237.142731,169.670700 237.170380,169.248596 
z"/>
<path fill="#0E0A03" opacity="1.000000" stroke="none" 
	d="
M197.077835,180.062515 
	C196.645660,176.382416 196.213470,172.702332 195.715622,168.462952 
	C200.441010,168.462952 204.543198,168.462952 208.914124,169.195831 
	C209.215561,172.967545 209.248276,176.006378 209.280991,179.045227 
	C209.280991,179.045227 209.104538,179.454865 208.583160,179.711090 
	C204.400482,179.999069 200.739151,180.030792 197.077835,180.062515 
z"/>
<path fill="#E6B86B" opacity="1.000000" stroke="none" 
	d="
M195.983459,185.263794 
	C201.458908,182.935028 206.331711,183.582077 211.219849,187.303757 
	C208.823868,191.755219 204.320816,189.870056 201.107834,190.576172 
	C198.708618,191.103439 195.643524,189.324158 195.983459,185.263794 
z"/>
<path fill="#AD8F5C" opacity="1.000000" stroke="none" 
	d="
M211.489807,195.056885 
	C209.478333,197.616898 202.279465,197.970825 198.054474,195.397919 
	C202.349045,195.041168 206.689484,195.040771 211.489807,195.056885 
z"/>
<path fill="#D5B476" opacity="1.000000" stroke="none" 
	d="
M209.638504,178.916245 
	C209.248276,176.006378 209.215561,172.967545 209.241089,169.481628 
	C209.531540,172.285446 209.763779,175.536362 209.638504,178.916245 
z"/>
<path fill="#D5B476" opacity="1.000000" stroke="none" 
	d="
M197.370544,180.335144 
	C200.739151,180.030792 204.400482,179.999069 208.519531,179.924835 
	C205.205933,180.124161 201.434601,180.365967 197.370544,180.335144 
z"/>
<path fill="#0E0A03" opacity="1.000000" stroke="none" 
	d="
M324.807129,342.766083 
	C325.921051,336.698090 328.305176,334.788574 332.652832,336.375793 
	C336.111237,337.638397 336.934998,340.633423 335.655701,343.690735 
	C335.029755,345.186768 333.085815,346.591553 331.445984,347.106415 
	C328.125580,348.148895 326.268921,345.872589 324.807129,342.766083 
z"/>
<path fill="#0E0A03" opacity="1.000000" stroke="none" 
	d="
M325.945587,353.034637 
	C329.067871,352.618805 332.113342,352.253845 336.773315,351.695404 
	C334.965546,353.627533 334.080475,355.199646 332.743225,355.870422 
	C330.079041,357.206879 327.666229,356.382324 325.854614,353.574402 
	C325.792999,353.253540 325.868744,353.085510 325.945587,353.034637 
z"/>
<path fill="#000000" opacity="1.000000" stroke="none" 
	d="
M308.778137,186.916718 
	C315.067047,186.916718 321.355927,186.916718 327.973999,186.916718 
	C327.973999,190.074326 327.973999,193.141068 327.973999,197.157516 
	C322.154205,196.801788 316.457642,196.453583 310.302185,195.611298 
	C309.488190,192.383713 309.133179,189.650208 308.778137,186.916718 
z"/>
<path fill="#D5B476" opacity="1.000000" stroke="none" 
	d="
M308.704163,186.883759 
	C309.133179,189.650208 309.488190,192.383713 309.878235,195.545654 
	C305.454712,196.070312 300.996185,196.166504 296.283508,195.806671 
	C296.029358,195.350632 296.030273,194.988541 296.420898,194.985352 
	C298.206970,193.738831 299.602448,192.495499 300.997955,191.252151 
	C299.483612,190.494553 298.010895,189.627274 296.436035,189.028976 
	C295.725250,188.758926 294.810944,189.024551 293.660522,189.029739 
	C292.893951,189.017349 292.455811,189.022385 291.767578,189.006882 
	C291.350494,188.976959 291.183472,188.967560 290.859253,188.728058 
	C290.126678,188.043854 289.551300,187.589752 289.380707,187.096375 
	C296.032593,187.029907 302.279694,187.002701 308.526764,186.975494 
	C308.526764,186.975494 308.630188,186.850815 308.704163,186.883759 
M303.170380,190.813141 
	C303.960327,192.084671 304.750305,193.356186 305.540283,194.627701 
	C306.301300,193.395203 307.062317,192.162689 307.823334,190.930191 
	C306.392487,190.666168 304.961670,190.402130 303.170380,190.813141 
z"/>
<path fill="#E6B86B" opacity="1.000000" stroke="none" 
	d="
M288.977539,195.841660 
	C285.613708,196.299652 282.249878,196.757645 277.580109,197.393448 
	C278.396484,193.507690 279.009521,190.589874 280.214600,187.354797 
	C281.843536,187.072433 282.880432,187.107361 284.006836,187.465698 
	C285.063416,188.191711 286.030426,188.594330 287.006470,189.006363 
	C287.015442,189.015793 287.036133,189.036880 287.069641,189.395081 
	C287.727966,191.782745 288.352753,193.812210 288.977539,195.841660 
z"/>
<path fill="#AD8F5C" opacity="1.000000" stroke="none" 
	d="
M283.917328,187.142288 
	C282.880432,187.107361 281.843536,187.072433 280.417969,187.039505 
	C283.538605,186.732452 287.044617,186.217667 290.558044,186.160904 
	C296.319641,186.067825 302.086029,186.272232 308.188599,186.663330 
	C302.279694,187.002701 296.032593,187.029907 289.067139,187.073761 
	C287.932953,187.137848 287.517181,187.185272 286.827820,187.274963 
	C285.675232,187.258926 284.796295,187.200607 283.917328,187.142288 
z"/>
<path fill="#F8BE60" opacity="1.000000" stroke="none" 
	d="
M289.309784,195.886002 
	C288.352753,193.812210 287.727966,191.782745 287.466431,189.383362 
	C288.891937,188.995010 289.954193,188.976593 291.016418,188.958160 
	C291.183472,188.967560 291.350494,188.976959 291.762268,189.403351 
	C291.664764,191.843109 291.322449,193.865829 290.980133,195.888550 
	C290.534088,195.902481 290.088074,195.916412 289.309784,195.886002 
z"/>
<path fill="#E6B86B" opacity="1.000000" stroke="none" 
	d="
M291.398621,195.969879 
	C291.322449,193.865829 291.664764,191.843109 292.012360,189.423889 
	C292.455811,189.022385 292.893951,189.017349 293.703186,189.377609 
	C294.726288,191.491440 295.378296,193.239990 296.030273,194.988541 
	C296.030273,194.988541 296.029358,195.350632 296.046204,195.528885 
	C294.647736,195.821823 293.232422,195.936508 291.398621,195.969879 
z"/>
<path fill="#0E0A03" opacity="1.000000" stroke="none" 
	d="
M356.264252,340.077576 
	C356.048859,338.885468 356.229767,336.697388 356.534973,336.679901 
	C358.659058,336.558258 360.845428,336.720581 362.927063,337.177856 
	C363.510742,337.306030 363.810547,338.726776 364.516632,340.086151 
	C361.550720,340.086151 359.134399,340.086151 356.264252,340.077576 
z"/>
<path fill="#0E0A03" opacity="1.000000" stroke="none" 
	d="
M287.778351,347.936188 
	C283.945435,349.830353 280.786713,348.788544 280.002625,345.273407 
	C279.426422,342.690338 280.268433,339.155914 281.824646,337.031677 
	C282.485657,336.129395 287.300293,336.932159 288.977386,338.393921 
	C292.345001,341.329224 291.309326,344.857788 287.778351,347.936188 
z"/>
<path fill="#0E0A03" opacity="1.000000" stroke="none" 
	d="
M304.468262,153.317383 
	C306.521820,154.434036 308.263153,155.339279 310.023560,156.254440 
	C302.729889,163.095657 295.498322,162.296158 287.809601,156.003601 
	C293.146698,153.734238 297.688080,149.093964 304.468262,153.317383 
z"/>
<path fill="#0E0A03" opacity="1.000000" stroke="none" 
	d="
M296.379456,167.027863 
	C294.514832,166.015930 293.091949,165.011154 291.669037,164.006378 
	C291.974243,163.385895 292.279449,162.765411 292.584656,162.144913 
	C296.821747,164.924438 301.041656,166.309692 305.184784,161.473740 
	C305.527618,162.178955 305.870453,162.884171 306.213257,163.589386 
	C305.204590,164.722717 304.377289,166.493210 303.145813,166.843674 
	C301.178772,167.403488 298.943207,167.019806 296.379456,167.027863 
z"/>
<path fill="#F8BE60" opacity="1.000000" stroke="none" 
	d="
M252.572952,177.769318 
	C252.472992,179.623444 252.472992,181.139343 252.472992,182.655228 
	C251.948303,182.800552 251.423615,182.945877 250.898926,183.091217 
	C250.168869,180.719025 249.438797,178.346832 248.708740,175.974640 
	C249.135483,175.673264 249.562210,175.371872 249.988953,175.070496 
	C250.883606,175.857346 251.778259,176.644211 252.572952,177.769318 
z"/>
<path fill="#F8BE60" opacity="1.000000" stroke="none" 
	d="
M296.420898,194.985352 
	C295.378296,193.239990 294.726288,191.491440 294.031616,189.395020 
	C294.810944,189.024551 295.725250,188.758926 296.436035,189.028976 
	C298.010895,189.627274 299.483612,190.494553 300.997955,191.252151 
	C299.602448,192.495499 298.206970,193.738831 296.420898,194.985352 
z"/>
<path fill="#F8BE60" opacity="1.000000" stroke="none" 
	d="
M303.350586,190.475616 
	C304.961670,190.402130 306.392487,190.666168 307.823334,190.930191 
	C307.062317,192.162689 306.301300,193.395203 305.540283,194.627701 
	C304.750305,193.356186 303.960327,192.084671 303.350586,190.475616 
z"/>
<path fill="#E6B86B" opacity="1.000000" stroke="none" 
	d="
M290.859253,188.728058 
	C289.954193,188.976593 288.891937,188.995010 287.432922,189.025162 
	C287.036133,189.036880 287.015442,189.015793 287.014221,188.710663 
	C287.042450,188.014572 287.071930,187.623642 287.101379,187.232697 
	C287.517181,187.185272 287.932953,187.137848 288.662292,187.113037 
	C289.551300,187.589752 290.126678,188.043854 290.859253,188.728058 
z"/>
<path fill="#D5B476" opacity="1.000000" stroke="none" 
	d="
M286.827789,187.274963 
	C287.071930,187.623642 287.042450,188.014572 287.005219,188.701233 
	C286.030426,188.594330 285.063416,188.191711 284.006836,187.465698 
	C284.796295,187.200607 285.675232,187.258926 286.827789,187.274963 
z"/>
</svg>